<svg xmlns="http://www.w3.org/2000/svg"  viewBox="0 0 48 48" width="48px" height="48px" fill-rule="evenodd" clip-rule="evenodd" baseProfile="basic"><path fill="#37474f" d="M5,40.499V29.491c0-1.379,1.12-2.5,2.5-2.5	c1.379,0,2.5,1.121,2.5,2.5v11.008c0,1.38-1.121,2.5-2.5,2.5C6.12,42.999,5,41.879,5,40.499z"/><path fill="#37474f" d="M15.998,40.499V18.491c0-1.379,1.12-2.5,2.5-2.5	c1.379,0,2.5,1.121,2.5,2.5v22.008c0,1.38-1.121,2.5-2.5,2.5C17.118,42.999,15.998,41.879,15.998,40.499z"/><path fill="#37474f" d="M26.998,40.499V29.491c0-1.379,1.12-2.5,2.5-2.5	c1.379,0,2.5,1.121,2.5,2.5v11.008c0,1.38-1.121,2.5-2.5,2.5C28.118,42.999,26.998,41.879,26.998,40.499z"/><path fill="#37474f" d="M37.999,40.498V18.49c0-1.379,1.12-2.5,2.5-2.5	c1.379,0,2.5,1.121,2.5,2.5v22.008c0,1.38-1.121,2.5-2.5,2.5C39.119,42.998,37.999,41.878,37.999,40.498z"/><path fill="#e91e62" fill-rule="evenodd" d="M7.501,4.998	c1.379,0,2.499,1.12,2.499,2.5s-1.12,2.5-2.499,2.5c-1.379,0-2.499-1.12-2.499-2.5S6.122,4.998,7.501,4.998z" clip-rule="evenodd"/><path fill="#f06291" fill-rule="evenodd" d="M18.501,4.998	c1.379,0,2.499,1.12,2.499,2.5s-1.12,2.5-2.499,2.5c-1.379,0-2.499-1.12-2.499-2.5S17.122,4.998,18.501,4.998z" clip-rule="evenodd"/><path fill="#7986cb" fill-rule="evenodd" d="M29.501,4.998	c1.379,0,2.499,1.12,2.499,2.5s-1.12,2.5-2.499,2.5c-1.379,0-2.499-1.12-2.499-2.5S28.122,4.998,29.501,4.998z" clip-rule="evenodd"/><path fill="#4fc3f7" fill-rule="evenodd" d="M40.5,4.998	c1.379,0,2.499,1.12,2.499,2.5s-1.12,2.5-2.499,2.5c-1.379,0-2.499-1.12-2.499-2.5S39.122,4.998,40.5,4.998z" clip-rule="evenodd"/><path fill="#e91e62" fill-rule="evenodd" d="M7.498,15.998	c1.379,0,2.499,1.12,2.499,2.5c0,1.38-1.12,2.5-2.499,2.5c-1.379,0-2.499-1.12-2.499-2.5C5,17.118,6.12,15.998,7.498,15.998z" clip-rule="evenodd"/><path fill="#7986cb" fill-rule="evenodd" d="M29.498,15.998	c1.379,0,2.499,1.12,2.499,2.5c0,1.38-1.12,2.5-2.499,2.5c-1.379,0-2.499-1.12-2.499-2.5C26.999,17.118,28.119,15.998,29.498,15.998	z" clip-rule="evenodd"/></svg>